#!OML:ASF F:\VICON\USERDATA\INSTALL\SteveWalk\SteveWalk.ASF
:FULLY-SPECIFIED
:DEGREES
197
root 0.613732 16.2758 -1.19268 16.1265 3.93035 3.67576
lowerback -13.3762 -2.69702 -4.54119
upperback -3.85308 -2.96394 0.0897969
thorax 3.6606 -1.48319 2.16627
lowerneck -5.7148 -2.13316 -1.10824
upperneck 10.9858 -2.95347 1.62552
head 4.72469 -1.4168 0.576341
rclavicle -1.6729e-014 -8.34896e-015
rhumerus -89.1154 -37.1706 -8.22549
rradius 10.8402
rwrist 52.9025
rhand -14.3029 -36.9239
rfingers 7.12502
rthumb 11.8371 -66.5694
lclavicle -1.6729e-014 -8.34896e-015
lhumerus -18.2799 -7.58602 83.1709
lradius 43.9695
lwrist 6.34312
lhand -23.1304 -19.7891
lfingers 7.12502
lthumb 3.31714 10.1648
rfemur -47.7508 -6.07617 19.5891
rtibia 22.7024
rfoot -13.5697 -4.26979
rtoes -19.1405
lfemur -7.43128 4.48352 -23.866
ltibia 23.1631
lfoot -24.7129 -9.40816
ltoes -13.1493
198
root 0.606004 16.2719 -0.970402 16.1894 4.56924 3.62585
lowerback -13.518 -2.88052 -4.34948
upperback -3.7588 -3.22714 0.19865
thorax 3.85251 -1.6172 2.11876
lowerneck -6.05326 -2.1479 -0.965929
upperneck 11.0991 -2.96903 1.46437
head 4.82982 -1.42453 0.491278
rclavicle -2.66434e-014 5.46658e-015
rhumerus -88.569 -36.6063 -9.24412
rradius 10.8905
rwrist 51.4232
rhand -14.3016 -36.8626
rfingers 7.12502
rthumb 11.8382 -66.508
lclavicle -2.66434e-014 5.46658e-015
lhumerus -17.6066 -8.00494 82.9773
lradius 45.034
lwrist 6.86925
lhand -23.0523 -20.0637
lfingers 7.12502
lthumb 3.3926 9.88908
rfemur -47.9465 -6.92457 20.0601
rtibia 21.0619
rfoot -13.357 -2.79621
rtoes -14.6039
lfemur -5.97004 4.16065 -23.4844
ltibia 21.7357
lfoot -24.108 -9.9079
ltoes -12.5852
199
root 0.601179 16.2599 -0.748894 16.313 5.13152 3.97932
lowerback -13.5518 -3.07489 -4.49423
upperback -3.79205 -3.46139 0.169434
thorax 3.85849 -1.73303 2.12765
lowerneck -6.19594 -2.1229 -0.852184
upperneck 11.1774 -2.93748 1.3757
head 4.88355 -1.40777 0.440847
rclavicle -3.89245e-014 -2.10712e-014
rhumerus -87.7239 -35.8591 -11.0483
rradius 11.1138
rwrist 49.2727
rhand -14.0731 -37.19
rfingers 7.12502
rthumb 12.0586 -66.8225
lclavicle -3.89245e-014 -2.10712e-014
lhumerus -17.2815 -8.4454 82.8079
lradius 46.267
lwrist 7.19978
lhand -23.1885 -20.7428
lfingers 7.12502
lthumb 3.2611 9.21204
rfemur -48.2551 -8.10845 20.3231
rtibia 19.7443
rfoot -13.5857 -1.03531
rtoes -13.9606
lfemur -4.56119 3.66958 -23.5593
ltibia 20.4081
lfoot -23.4217 -10.0595
ltoes -13.2656
200
root 0.595756 16.2411 -0.520537 16.4424 5.50093 4.24504
lowerback -13.6316 -3.16326 -4.5363
upperback -3.89913 -3.56847 0.142357
thorax 3.79737 -1.78307 2.10346
lowerneck -6.13791 -2.12941 -0.804949
upperneck 11.6624 -2.94776 1.2974
head 4.53159 -1.40981 0.36204
rclavicle 3.63155e-014 1.61016e-014
rhumerus -88.046 -35.1847 -10.7739
rradius 11.1486
rwrist 48.7374
rhand -13.6243 -37.1248
rfingers 7.12502
rthumb 12.4913 -66.7314
lclavicle 3.63155e-014 1.61016e-014
lhumerus -16.9353 -8.78932 82.7013
lradius 47.1031
lwrist 7.39133
lhand -23.4031 -21.5172
lfingers 7.12502
lthumb 3.05383 8.44067
rfemur -48.5998 -9.35652 20.9369
rtibia 18.5663
rfoot -13.8308 0.7803
rtoes -14.3141
lfemur -3.32413 3.29174 -23.5878
ltibia 19.4685
lfoot -22.8934 -10.0259
ltoes -14.7988
201
root 0.580666 16.215 -0.28974 16.5512 5.79966 4.46438
lowerback -13.77 -3.26879 -4.70748
upperback -3.92491 -3.67899 0.19124
thorax 3.8663 -1.83883 2.22493
lowerneck -5.94825 -2.16954 -0.913473
upperneck 11.0692 -2.9746 1.21512
head 4.79069 -1.43874 0.397814
rclavicle -2.35498e-014 7.95139e-016
rhumerus -88.477 -34.7617 -10.1159
rradius 11.1206
rwrist 48.745
rhand -13.3533 -36.5869
rfingers 7.12502
rthumb 12.7527 -66.1774
lclavicle -2.35498e-014 7.95139e-016
lhumerus -16.4797 -8.95317 82.6686
lradius 47.7715
lwrist 7.59873
lhand -23.6571 -21.7879
lfingers 7.12502
lthumb 2.80847 8.17335
rfemur -48.8704 -9.91734 21.1828
rtibia 17.5869
rfoot -13.9106 1.87161
rtoes -15.3048
lfemur -2.37495 2.74828 -23.5483
ltibia 18.9714
lfoot -23.194 -9.43831
ltoes -17.5643
202
root 0.570348 16.1903 -0.0631883 16.8323 6.21125 4.48908
lowerback -14.0148 -3.39059 -4.57497
upperback -4.02631 -3.85129 0.302946
thorax 3.90446 -1.92202 2.22764
lowerneck -5.68362 -2.22716 -1.05092
upperneck 10.7913 -3.03032 1.1641
head 4.63661 -1.47663 0.405803
rclavicle -4.01172e-014 -2.98177e-015
rhumerus -87.725 -34.1667 -11.4699
rradius 11.1643
rwrist 47.0877
rhand -12.9958 -36.3234
rfingers 7.12502
rthumb 13.0973 -65.8921
lclavicle -4.01172e-014 -2.98177e-015
lhumerus -16.2404 -9.03326 82.6623
lradius 48.7105
lwrist 7.83513
lhand -23.9203 -21.3569
lfingers 7.12502
lthumb 2.55437 8.60756
rfemur -49.1113 -10.2563 21.4307
rtibia 16.707
rfoot -13.9155 2.94021
rtoes -16.5876
lfemur -1.9266 1.99055 -23.298
ltibia 18.9631
lfoot -23.2029 -9.73301
ltoes -17.4614
